<?xml version="1.0" encoding="utf-8"?>
<!-- Generator: Adobe Illustrator 16.0.5, SVG Export Plug-In . SVG Version: 6.00 Build 0)  -->
<!DOCTYPE svg PUBLIC "-//W3C//DTD SVG 1.1//EN" "http://www.w3.org/Graphics/SVG/1.1/DTD/svg11.dtd">
<svg version="1.1" id="Layer_1" focusable="false" xmlns="http://www.w3.org/2000/svg" xmlns:xlink="http://www.w3.org/1999/xlink"
	 x="0px" y="0px" width="595.279px" height="841.891px" viewBox="0 0 595.279 841.891" enable-background="new 0 0 595.279 841.891"
	 xml:space="preserve">
<path fill="#5586FF" d="M552.76,357.165H361.42v-191.34c0-23.479-19.041-42.521-42.521-42.521h-42.52
	c-23.479,0-42.521,19.041-42.521,42.521v191.34H42.52C19.041,357.165,0,376.206,0,399.686v42.52c0,23.479,19.041,42.52,42.52,42.52
	h191.34v191.341c0,23.479,19.041,42.52,42.521,42.52h42.52c23.479,0,42.521-19.041,42.521-42.52V484.725h191.34
	c23.479,0,42.52-19.04,42.52-42.52v-42.52C595.28,376.206,576.24,357.165,552.76,357.165z"/>
</svg>
